<?xml version="1.0" encoding="utf-8"?>
<!-- Generator: Adobe Illustrator 16.2.1, SVG Export Plug-In . SVG Version: 6.00 Build 0)  -->
<!DOCTYPE svg PUBLIC "-//W3C//DTD SVG 1.1//EN" "http://www.w3.org/Graphics/SVG/1.1/DTD/svg11.dtd">
<svg version="1.1" id="Layer_1" xmlns="http://www.w3.org/2000/svg" xmlns:xlink="http://www.w3.org/1999/xlink" x="0px" y="0px"
	 width="136.912px" height="26.206px" viewBox="0 0 136.912 26.206" enable-background="new 0 0 136.912 26.206"
	 xml:space="preserve">
<g>
	<path fill="#F89831" d="M8.554,14.346c-0.607-0.576-1.395-1.031-2.245-1.031c-0.697,0-1.395,0.546-1.395,1.274
		c0,1.092,1.547,1.396,3.063,2.062c1.547,0.667,3.063,1.699,3.063,4.277c0,3.306-2.669,5.277-5.793,5.277
		c-2.002,0-3.942-0.91-5.247-2.487l1.941-2.518c0.819,0.91,1.911,1.729,3.155,1.729c0.94,0,1.698-0.637,1.698-1.607
		c0-1.305-1.486-1.608-2.973-2.245c-1.485-0.637-2.972-1.517-2.972-3.913c0-2.791,1.941-4.823,4.732-4.823
		c1.577,0,3.579,0.485,4.792,1.547L8.554,14.346z"/>
	<path fill="#F89831" d="M18.108,25.72h-4.246V14.407h-1.457v-3.579h1.457V5.793h4.246v5.035h2.608v3.579h-2.608V25.72z"/>
	<path fill="#F89831" d="M25.902,12.375h0.061c0.849-1.304,2.124-2.032,3.7-2.032c0.607,0,1.213,0.152,1.759,0.364l-0.515,3.943
		c-0.516-0.364-1.122-0.546-1.759-0.546c-2.942,0-3.246,2.608-3.246,4.914v6.703h-4.246V10.828h4.246V12.375z"/>
	<path fill="#F89831" d="M36.214,18.957c0,1.88,0.728,4.004,2.942,4.004c1.395,0,2.275-0.85,2.851-2.032l3.913,0.636
		c-1.031,2.973-3.64,4.641-6.764,4.641c-4.61,0-7.431-3.276-7.431-7.795c0-4.52,2.396-8.068,7.219-8.068
		c4.883,0,7.067,3.609,7.067,8.098v0.516H36.214z M42.008,16.318c-0.213-1.517-1.183-3.003-2.821-3.003
		c-1.698,0-2.638,1.456-2.852,3.003H42.008z"/>
	<path fill="#F89831" d="M51.41,18.957c0,1.88,0.728,4.004,2.942,4.004c1.395,0,2.275-0.85,2.851-2.032l3.913,0.636
		c-1.032,2.973-3.64,4.641-6.764,4.641c-4.61,0-7.431-3.276-7.431-7.795c0-4.52,2.396-8.068,7.219-8.068
		c4.883,0,7.067,3.609,7.067,8.098v0.516H51.41z M57.203,16.318c-0.212-1.517-1.184-3.003-2.821-3.003
		c-1.698,0-2.638,1.456-2.85,3.003H57.203z"/>
	<path fill="#F89831" d="M67.94,25.72h-4.247V14.407h-1.457v-3.579h1.457V5.793h4.247v5.035h2.608v3.579H67.94V25.72z"/>
	<path fill="#F89831" d="M71.488,0h4.247v12.193c0.97-1.153,2.547-1.85,4.125-1.85c4.215,0,6.793,3.943,6.793,7.855
		c0,4.064-2.487,8.007-6.885,8.007c-1.517,0-3.125-0.667-3.973-1.88h-0.061v1.395h-4.247V0z M82.346,18.259
		c0-2.002-1.334-4.156-3.518-4.156c-2.185,0-3.519,2.154-3.519,4.156s1.334,4.185,3.519,4.185
		C81.012,22.444,82.346,20.261,82.346,18.259z"/>
	<path fill="#F89831" d="M102.698,25.72h-4.186v-1.365h-0.061c-0.91,1.183-2.487,1.85-4.034,1.85c-4.368,0-6.855-3.973-6.855-8.007
		c0-3.943,2.518-7.855,6.794-7.855c1.547,0,3.125,0.667,4.155,1.88v-1.395h4.186V25.72z M98.938,18.259
		c0-2.002-1.365-4.156-3.549-4.156s-3.519,2.154-3.519,4.156s1.335,4.185,3.519,4.185S98.938,20.261,98.938,18.259z"/>
	<path fill="#F89831" d="M110.008,12.193h0.061c0.879-1.334,2.366-1.85,3.882-1.85c4.003,0,5.156,2.821,5.156,6.278v9.099h-4.247
		v-7.886c0-1.789,0.092-4.095-2.305-4.095c-2.517,0-2.547,2.821-2.547,4.611v7.37h-4.247V10.828h4.247V12.193z"/>
	<path fill="#F89831" d="M126.387,16.288h0.061l4.458-5.459h5.52l-6.278,6.551l6.764,8.341h-5.581l-4.883-6.339h-0.061v6.339h-4.247
		V0h4.247V16.288z"/>
</g>
</svg>
